<svg width="659" height="765" viewBox="0 0 659 765" fill="none" xmlns="http://www.w3.org/2000/svg">
<g clip-path="url(#clip0_1646_123)">
<path d="M659 679.069H482.121V676.78C528.425 676.78 572.832 658.394 605.574 625.667C638.316 592.94 656.71 548.553 656.71 502.27V378.884H659V679.069Z" fill="#F2F2F2"/>
<path d="M176.378 233.107C171.675 234.898 166.874 236.416 161.997 237.653C155.555 239.223 151.917 239.95 145.699 237.538C145.481 237.453 145.273 237.369 145.076 237.287C133.29 232.278 123.215 223.953 116.078 213.324C108.94 202.696 105.048 190.222 104.875 177.422C104.844 176.983 104.844 176.522 104.844 176.071C104.837 173.902 104.941 171.734 105.154 169.575C105.427 166.634 105.898 163.715 106.563 160.838L106.501 160.826C101.467 155.681 99.5297 148.633 100.172 141.551C100.612 136.75 102.136 132.111 104.63 127.984C107.125 123.857 110.523 120.35 114.57 117.727C120.913 113.741 128.064 111.217 135.505 110.341C137.503 110.11 139.512 109.994 141.523 109.991H160.417C164.319 109.078 168.283 108.454 172.277 108.122H172.308C210.334 104.97 240.322 130.168 237.525 160.826C237.505 160.86 237.474 160.894 237.453 160.928C236.645 162.245 235.93 163.495 235.298 164.688C234.687 165.803 234.169 166.873 233.724 167.886C230.254 175.722 246.744 297.303 240.83 299.149C237.463 300.197 223.894 209.725 226.328 226.929C229.394 248.512 193.896 226.635 176.378 233.107Z" fill="#2F2E41"/>
<path d="M233.662 452.891L286.373 565.136L83.604 544.609L125.931 436.855L233.662 452.891Z" fill="#FFB6B6"/>
<path d="M339.476 677.938C304.215 689.67 267.057 694.645 229.951 692.601L213.815 666.446C213.815 666.446 213.139 676.187 212.132 691.079C194.468 689.033 177.035 685.339 160.06 680.044C127.869 669.983 97.6938 654.393 67.106 640.016C60.9106 603.1 58.5858 546.176 92.8382 513.038L277.201 546.806C277.201 546.806 306.781 568.921 298.868 576.842C290.954 584.751 289.729 583.526 294.928 588.723C300.127 593.92 311.362 600.868 311.476 605.412C311.522 607.187 324.13 639.363 339.476 677.938Z" fill="#2F2E41"/>
<path d="M201.467 235.991L156.926 239.097L128.137 266.904L118.055 268.703C108.992 270.318 100.837 275.201 95.1366 282.426C89.4361 289.651 86.5864 298.716 87.1279 307.902C89.2018 343.023 93.8453 395.501 103.551 412.526C118.6 438.926 131.03 430.643 118.6 438.926C106.169 447.209 97.8242 440.7 103.551 453.791C109.277 466.881 95.811 483.672 95.811 483.672L90.4504 489.03L96.1359 491.359L277.299 514.921C277.299 514.921 261.635 444.523 271.431 427.229C281.228 409.935 304.98 357.66 283.782 337.205L263.054 264.297L227.4 253.786L201.467 235.991Z" fill="#116A7B"/>
<path d="M471.098 524.93C468.117 524.835 465.192 524.095 462.526 522.759C459.859 521.424 457.515 519.525 455.655 517.195C453.795 514.865 452.463 512.159 451.752 509.264C451.041 506.369 450.968 503.354 451.538 500.428L366.558 442.902L376.698 415.495L477.13 484.557C481.986 485.881 486.188 488.94 488.938 493.155C491.689 497.369 492.797 502.445 492.054 507.421C491.31 512.398 488.766 516.929 484.904 520.156C481.042 523.382 476.129 525.081 471.098 524.93Z" fill="#FFB6B6"/>
<path d="M231.071 260.854L218.723 265.741L284.595 394.337L420.963 487.248L440.62 454.04L336.815 364.419L295.257 284.752C289.408 273.54 279.611 264.893 267.757 260.479C255.903 256.065 242.833 256.199 231.071 260.854Z" fill="#116A7B"/>
<path d="M176.879 224.682C201.58 224.682 221.605 204.667 221.605 179.976C221.605 155.286 201.58 135.271 176.879 135.271C152.178 135.271 132.153 155.286 132.153 179.976C132.153 204.667 152.178 224.682 176.879 224.682Z" fill="#FFB6B6"/>
<path d="M215.772 161.071C215.027 161.465 214.291 161.827 213.545 162.189C212.768 162.562 211.992 162.935 211.204 163.287C196.236 170.069 184.044 170.825 176.648 161.071C176.446 155.94 175.29 150.891 173.241 146.182C173.603 151.445 172.215 156.679 169.294 161.071H154.398C139.058 171.249 131.185 180.598 141.834 214.01C142.528 216.205 147.282 294.19 148.639 300.185C125.415 291.281 105.382 196.74 104.875 171.829C104.843 171.425 104.843 171.001 104.843 170.586C104.837 168.591 104.941 166.596 105.154 164.612C105.428 161.903 105.898 159.218 106.563 156.578L106.501 156.567C104.138 154.309 102.335 151.531 101.237 148.453C100.138 145.376 99.7732 142.085 100.172 138.842C104.068 133.743 108.889 129.423 114.384 126.106C119.38 123.688 124.588 121.733 129.942 120.267C130.077 120.236 130.191 120.205 130.325 120.174C131.962 119.728 133.64 119.325 135.318 118.973C138.776 118.248 142.273 117.719 145.791 117.389C146.05 117.378 146.298 117.357 146.526 117.357C147.933 117.358 149.314 117.737 150.524 118.455C150.535 118.455 150.535 118.465 150.555 118.465C151.718 119.16 152.683 120.142 153.356 121.317C154.029 122.492 154.388 123.821 154.398 125.175H170.993C171.604 125.175 172.215 125.195 172.826 125.226C195.936 126.148 214.509 136.025 215.7 158.731C215.752 159.518 215.772 160.284 215.772 161.071Z" fill="#2F2E41"/>
<path d="M117.664 162.869C133.937 162.869 147.13 149.682 147.13 133.416C147.13 117.15 133.937 103.964 117.664 103.964C101.39 103.964 88.1982 117.15 88.1982 133.416C88.1982 149.682 101.39 162.869 117.664 162.869Z" fill="#2F2E41"/>
<path d="M158.117 119.793C154.77 135.712 138.254 145.232 122.454 141.338C114.866 139.468 108.333 134.661 104.291 127.976C100.248 121.291 99.0288 113.274 100.9 105.69C104.796 89.8974 123.971 94.4503 136.563 84.1461C154.376 69.5693 162.632 98.3265 158.117 119.793Z" fill="#2F2E41"/>
<path d="M92.6488 562.895C117.762 460.531 167.521 372.547 249.929 303.613C253.118 298.369 258.258 294.603 264.222 293.142C270.185 291.681 276.485 292.645 281.739 295.821L477.643 414.548C482.89 417.736 486.657 422.874 488.118 428.835C489.58 434.795 488.616 441.092 485.439 446.344C453.985 551.38 406.874 642.525 328.159 705.626C324.97 710.871 319.83 714.636 313.866 716.097C307.903 717.558 301.603 716.595 296.349 713.419L100.445 594.691C95.1984 591.503 91.4311 586.365 89.9695 580.405C88.5079 574.444 89.4715 568.147 92.6488 562.895Z" fill="#116A7B"/>
<path opacity="0.2" d="M127.469 597.394C122.222 594.206 118.455 589.068 116.994 583.107C115.532 577.147 116.496 570.85 119.673 565.598C144.786 463.234 194.545 375.25 276.953 306.316C279.064 302.883 282.045 300.068 285.594 298.157L281.739 295.82C276.485 292.645 270.185 291.681 264.222 293.142C258.259 294.603 253.118 298.368 249.929 303.613C167.521 372.547 117.762 460.531 92.6492 562.895C89.4718 568.147 88.5082 574.444 89.9697 580.404C91.4312 586.365 95.1985 591.503 100.445 594.691L296.349 713.419C299.836 715.516 303.815 716.654 307.884 716.718C311.953 716.783 315.967 715.771 319.518 713.785L127.469 597.394Z" fill="black"/>
<path d="M357.215 540.203L225.715 461.005C223.625 459.743 222.123 457.704 221.537 455.335C220.95 452.967 221.329 450.463 222.589 448.373C223.848 446.283 225.887 444.778 228.255 444.189C230.624 443.6 233.13 443.975 235.223 445.232L366.722 524.43C368.807 525.694 370.304 527.733 370.887 530.099C371.47 532.465 371.091 534.966 369.833 537.053C368.575 539.14 366.54 540.644 364.175 541.234C361.81 541.824 359.307 541.454 357.215 540.203Z" fill="white"/>
<path d="M280.716 435.178L251.786 417.755C249.69 416.501 248.177 414.466 247.582 412.098C246.986 409.73 247.356 407.222 248.61 405.127C249.865 403.031 251.9 401.519 254.27 400.924C256.639 400.328 259.148 400.698 261.245 401.952L261.294 401.982L290.224 419.406C292.309 420.67 293.807 422.708 294.391 425.075C294.974 427.441 294.595 429.942 293.337 432.03C292.078 434.117 290.043 435.621 287.677 436.211C285.312 436.801 282.808 436.43 280.716 435.178Z" fill="white"/>
<path d="M336.315 574.873L204.815 495.676C202.723 494.417 201.217 492.379 200.628 490.011C200.038 487.643 200.414 485.137 201.671 483.046C202.929 480.954 204.966 479.447 207.334 478.855C209.703 478.264 212.21 478.636 214.304 479.891L214.323 479.903L345.822 559.1C347.907 560.365 349.404 562.403 349.987 564.77C350.57 567.136 350.191 569.636 348.933 571.723C347.675 573.811 345.64 575.314 343.275 575.905C340.91 576.495 338.407 576.124 336.315 574.873Z" fill="white"/>
<path d="M373.914 390.873C395.126 390.873 412.323 373.684 412.323 352.481C412.323 331.279 395.126 314.09 373.914 314.09C352.702 314.09 335.506 331.279 335.506 352.481C335.506 373.684 352.702 390.873 373.914 390.873Z" fill="#3F3D56"/>
<path d="M307.708 763.855C353.046 763.855 389.8 727.118 389.8 681.8C389.8 636.482 353.046 599.745 307.708 599.745C262.37 599.745 225.616 636.482 225.616 681.8C225.616 727.118 262.37 763.855 307.708 763.855Z" fill="white"/>
<path d="M307.708 765C291.245 765 275.152 760.12 261.464 750.978C247.775 741.836 237.107 728.842 230.807 713.639C224.507 698.437 222.858 681.708 226.07 665.569C229.282 649.43 237.209 634.605 248.85 622.969C260.491 611.333 275.322 603.409 291.469 600.199C307.615 596.989 324.352 598.636 339.561 604.933C354.771 611.23 367.771 621.894 376.917 635.576C386.064 649.258 390.945 665.344 390.946 681.799C390.921 703.858 382.143 725.006 366.538 740.604C350.934 756.201 329.776 764.975 307.708 765ZM307.708 600.889C291.698 600.889 276.048 605.635 262.736 614.525C249.424 623.416 239.049 636.053 232.923 650.837C226.796 665.622 225.193 681.89 228.316 697.585C231.44 713.28 239.149 727.697 250.47 739.013C261.791 750.328 276.214 758.034 291.916 761.156C307.619 764.278 323.894 762.676 338.686 756.552C353.477 750.428 366.119 740.057 375.013 726.751C383.908 713.445 388.655 697.802 388.655 681.799C388.631 660.348 380.095 639.782 364.919 624.614C349.744 609.446 329.169 600.914 307.708 600.889Z" fill="#3F3D56"/>
<path d="M296.509 724.506C295.091 724.506 293.693 724.176 292.425 723.542C291.157 722.908 290.055 721.988 289.204 720.854L266.808 691.006C266.087 690.047 265.563 688.955 265.264 687.794C264.966 686.632 264.899 685.423 265.069 684.236C265.238 683.049 265.639 681.906 266.25 680.874C266.862 679.842 267.67 678.941 268.63 678.221C269.59 677.501 270.682 676.978 271.845 676.681C273.007 676.383 274.217 676.318 275.404 676.488C276.592 676.658 277.734 677.061 278.766 677.672C279.798 678.284 280.7 679.093 281.419 680.053L296.071 699.579L333.703 643.157C334.369 642.16 335.224 641.303 336.22 640.636C337.217 639.969 338.335 639.505 339.511 639.27C340.687 639.034 341.897 639.033 343.074 639.266C344.25 639.498 345.369 639.96 346.367 640.625C347.365 641.29 348.222 642.145 348.889 643.141C349.556 644.137 350.021 645.255 350.256 646.43C350.491 647.605 350.493 648.815 350.26 649.991C350.027 651.167 349.565 652.286 348.9 653.283L304.108 720.441C303.297 721.655 302.208 722.658 300.93 723.365C299.652 724.072 298.223 724.462 296.763 724.503C296.678 724.504 296.594 724.506 296.509 724.506Z" fill="#116A7B"/>
<path d="M572.826 265.981C576.088 265.703 578.576 263.638 578.382 261.369C578.188 259.101 575.386 257.488 572.124 257.767C568.861 258.046 566.374 260.111 566.568 262.379C566.762 264.647 569.564 266.26 572.826 265.981Z" fill="white"/>
<path d="M609.53 253.536C612.792 253.257 615.279 251.192 615.085 248.924C614.891 246.656 612.089 245.043 608.827 245.322C605.565 245.601 603.078 247.665 603.272 249.934C603.466 252.202 606.268 253.815 609.53 253.536Z" fill="#3F3D56"/>
<path d="M555.428 237.991C558.69 237.712 561.177 235.648 560.983 233.379C560.789 231.111 557.988 229.498 554.725 229.777C551.463 230.056 548.976 232.121 549.17 234.389C549.364 236.657 552.166 238.27 555.428 237.991Z" fill="#FF6584"/>
<path d="M540.032 228.972C541.436 228.655 542.205 226.763 541.749 224.745C541.293 222.728 539.785 221.349 538.381 221.667C536.977 221.984 536.208 223.876 536.664 225.894C537.12 227.911 538.628 229.289 540.032 228.972Z" fill="#E6E6E6"/>
<path d="M529.071 207.077C530.475 206.76 531.243 204.867 530.787 202.85C530.331 200.832 528.823 199.454 527.419 199.771C526.015 200.088 525.247 201.981 525.703 203.998C526.159 206.015 527.667 207.394 529.071 207.077Z" fill="#3F3D56"/>
<path d="M581.662 237.826C583.066 237.509 583.835 235.616 583.378 233.599C582.922 231.581 581.415 230.203 580.01 230.52C578.606 230.837 577.838 232.73 578.294 234.747C578.75 236.764 580.258 238.143 581.662 237.826Z" fill="#E6E6E6"/>
<path d="M565.631 251.128C567.035 250.811 567.803 248.918 567.347 246.901C566.891 244.884 565.383 243.505 563.979 243.822C562.575 244.139 561.807 246.032 562.263 248.049C562.719 250.067 564.227 251.445 565.631 251.128Z" fill="#FF6584"/>
<path d="M594.816 261.963C596.22 261.646 596.988 259.753 596.532 257.736C596.076 255.719 594.568 254.34 593.164 254.657C591.76 254.974 590.992 256.867 591.448 258.884C591.904 260.902 593.412 262.28 594.816 261.963Z" fill="#3F3D56"/>
<path d="M421.29 96.3725C421.849 94.1657 419.73 91.725 416.556 90.9211C413.382 90.1172 410.356 91.2544 409.797 93.4613C409.237 95.6681 411.356 98.1087 414.53 98.9127C417.704 99.7166 420.73 98.5793 421.29 96.3725Z" fill="white"/>
<path d="M382.532 96.1229C383.092 93.9161 380.973 91.4755 377.799 90.6715C374.625 89.8676 371.599 91.0049 371.039 93.2117C370.48 95.4185 372.599 97.8592 375.773 98.6632C378.947 99.4671 381.973 98.3298 382.532 96.1229Z" fill="#3F3D56"/>
<path d="M428.562 128.513C429.122 126.306 427.003 123.866 423.829 123.062C420.655 122.258 417.629 123.395 417.069 125.602C416.51 127.809 418.629 130.249 421.803 131.053C424.977 131.857 428.003 130.72 428.562 128.513Z" fill="#FF6584"/>
<path d="M437.597 140.632C437.827 138.577 436.854 136.781 435.423 136.621C433.992 136.461 432.647 137.998 432.417 140.054C432.187 142.109 433.16 143.905 434.591 144.065C436.021 144.224 437.367 142.688 437.597 140.632Z" fill="#E6E6E6"/>
<path d="M440.784 164.908C441.014 162.853 440.041 161.057 438.61 160.897C437.18 160.737 435.834 162.274 435.604 164.33C435.374 166.385 436.347 168.181 437.778 168.341C439.208 168.5 440.554 166.964 440.784 164.908Z" fill="#3F3D56"/>
<path d="M401.16 118.645C401.39 116.59 400.417 114.794 398.986 114.634C397.556 114.475 396.21 116.011 395.98 118.067C395.75 120.122 396.724 121.918 398.154 122.078C399.585 122.238 400.931 120.701 401.16 118.645Z" fill="#E6E6E6"/>
<path d="M420.665 111.322C420.895 109.266 419.921 107.47 418.491 107.311C417.06 107.151 415.714 108.688 415.484 110.743C415.255 112.799 416.228 114.594 417.659 114.754C419.089 114.914 420.435 113.377 420.665 111.322Z" fill="#FF6584"/>
<path d="M396.637 91.5341C396.866 89.4787 395.893 87.6829 394.462 87.5231C393.032 87.3633 391.686 88.9001 391.456 90.9555C391.226 93.011 392.2 94.8068 393.63 94.9665C395.061 95.1263 396.407 93.5896 396.637 91.5341Z" fill="#3F3D56"/>
<path d="M2.29036 300.185H0V0H176.879V2.28933C130.575 2.28933 86.1678 20.6751 53.4261 53.402C20.6844 86.1289 2.29036 130.516 2.29036 176.799V300.185Z" fill="#F2F2F2"/>
<path d="M104.864 563.98C101.937 562.781 99.3054 560.961 97.1512 558.646C94.997 556.33 93.3717 553.575 92.3877 550.57C91.4037 547.565 91.0845 544.382 91.4522 541.241C91.8199 538.101 92.8657 535.078 94.5172 532.381L31.4116 443.714L51.6563 420.237L125.837 526.096C130.172 529.212 133.212 533.81 134.382 539.017C135.552 544.224 134.771 549.68 132.186 554.349C129.6 559.019 125.391 562.579 120.356 564.354C115.32 566.129 109.808 565.996 104.864 563.98Z" fill="#FFB6B6"/>
<path d="M106.314 282.997C103.122 281.12 99.364 280.441 95.7159 281.083C92.0678 281.725 88.768 283.646 86.4089 286.5L1.14502 405.693L80.1625 517.87L111.082 484.674L62.9848 409.127L126.907 348.293C132.16 336.791 132.962 323.75 129.159 311.691C125.356 299.632 117.217 289.409 106.314 282.997Z" fill="#116A7B"/>
</g>
<defs>
<clipPath id="clip0_1646_123">
<rect width="659" height="765" fill="white"/>
</clipPath>
</defs>
</svg>
