<svg width="51" height="52" viewBox="0 0 51 52" fill="none" xmlns="http://www.w3.org/2000/svg">
<path d="M25.5 51.3879C24.0333 51.3879 22.9 50.9879 22.1 50.1879C21.3 49.3212 20.9 48.1546 20.9 46.6879V30.2879H4.8C3.4 30.2879 2.3 29.9212 1.5 29.1879C0.7 28.3879 0.3 27.2879 0.3 25.8879C0.3 24.4879 0.7 23.4212 1.5 22.6879C2.3 21.8879 3.4 21.4879 4.8 21.4879H20.9V5.58789C20.9 4.12122 21.3 2.98789 22.1 2.18789C22.9 1.38789 24.0667 0.987889 25.6 0.987889C27.0667 0.987889 28.1667 1.38789 28.9 2.18789C29.7 2.98789 30.1 4.12122 30.1 5.58789V21.4879H46.2C47.6667 21.4879 48.7667 21.8879 49.5 22.6879C50.3 23.4212 50.7 24.4879 50.7 25.8879C50.7 27.2879 50.3 28.3879 49.5 29.1879C48.7667 29.9212 47.6667 30.2879 46.2 30.2879H30.1V46.6879C30.1 48.1546 29.7 49.3212 28.9 50.1879C28.1667 50.9879 27.0333 51.3879 25.5 51.3879Z" fill="#116A7B"/>
</svg>
