<svg width="42" height="42" viewBox="0 0 42 42" fill="none" xmlns="http://www.w3.org/2000/svg">
<path id="Vector" fill-rule="evenodd" clip-rule="evenodd" d="M17.093 0H15.1395C9.61507 0 6.85088 -1.20646e-07 5.13572 1.77918C3.4186 3.55634 3.4186 6.42043 3.4186 12.1446V38.9639H1.46512C1.07654 38.9639 0.703885 39.1238 0.429123 39.4085C0.15436 39.6932 0 40.0793 0 40.4819C0 40.8845 0.15436 41.2707 0.429123 41.5554C0.703885 41.8401 1.07654 42 1.46512 42H31.2558C31.6444 42 32.017 41.8401 32.2918 41.5554C32.5666 41.2707 32.7209 40.8845 32.7209 40.4819C32.7209 40.0793 32.5666 39.6932 32.2918 39.4085C32.017 39.1238 31.6444 38.9639 31.2558 38.9639H28.814V31.8795H31.8829C32.6154 31.8795 33.2093 32.4948 33.2093 33.2539V33.3976C33.2093 34.6054 33.6724 35.7638 34.4967 36.6179C35.321 37.472 36.4389 37.9518 37.6047 37.9518C38.7704 37.9518 39.8883 37.472 40.7126 36.6179C41.5369 35.7638 42 34.6054 42 33.3976V11.339C42 11.0212 42 10.8026 41.9883 10.5901C41.88 8.58452 41.009 6.7052 39.566 5.36386C39.383 5.20059 39.1967 5.04133 39.0073 4.88617L36.5654 2.86207C36.4154 2.73485 36.2424 2.63975 36.0567 2.58228C35.8709 2.52481 35.676 2.50611 35.4832 2.52727C35.2904 2.54843 35.1036 2.60902 34.9335 2.70554C34.7635 2.80206 34.6137 2.93259 34.4927 3.08955C34.3717 3.24652 34.282 3.4268 34.2287 3.61995C34.1755 3.81311 34.1598 4.01529 34.1825 4.21479C34.2052 4.41428 34.2659 4.60712 34.3611 4.78213C34.4563 4.95714 34.584 5.11084 34.7369 5.23431L37.1456 7.23007C37.4269 7.46487 37.5246 7.54583 37.6086 7.62477C38.474 8.42834 38.9975 9.55576 39.0639 10.7601C39.0709 10.9665 39.0728 11.173 39.0698 11.3795V12.1446H37.6047C36.8275 12.1446 36.0822 12.4645 35.5327 13.0338C34.9831 13.6032 34.6744 14.3755 34.6744 15.1807V20.077C34.6745 20.7143 34.8681 21.3355 35.2278 21.8524C35.5875 22.3694 36.0951 22.7559 36.6787 22.9573L39.0698 23.7831V33.3976C39.0698 33.8002 38.9154 34.1863 38.6406 34.471C38.3659 34.7557 37.9932 34.9157 37.6047 34.9157C37.2161 34.9157 36.8434 34.7557 36.5687 34.471C36.2939 34.1863 36.1395 33.8002 36.1395 33.3976V33.2539C36.1395 32.0841 35.6911 30.9623 34.8928 30.1352C34.0945 29.3081 33.0118 28.8434 31.8829 28.8434H28.814V12.1446C28.814 6.42043 28.814 3.55634 27.0968 1.77918C25.3817 -1.20646e-07 22.6175 0 17.093 0ZM16.8703 14.8913C17.2034 15.0985 17.4435 15.4344 17.5376 15.8249C17.6318 16.2155 17.5723 16.6289 17.3724 16.9741L15.7744 19.7349H19.0465C19.3058 19.735 19.5604 19.8063 19.7844 19.9416C20.0084 20.0769 20.1937 20.2714 20.3215 20.5052C20.4492 20.739 20.5147 21.0038 20.5114 21.2724C20.5081 21.5411 20.4361 21.804 20.3026 22.0343L17.3724 27.0946C17.2744 27.2676 17.1442 27.4187 16.9895 27.5393C16.8348 27.6599 16.6585 27.7475 16.4709 27.7971C16.2832 27.8467 16.088 27.8572 15.8964 27.8282C15.7049 27.7991 15.5207 27.7309 15.3547 27.6277C15.1887 27.5244 15.0441 27.3881 14.9293 27.2266C14.8144 27.0651 14.7316 26.8816 14.6856 26.6867C14.6396 26.4918 14.6314 26.2894 14.6614 26.0912C14.6913 25.893 14.7589 25.7029 14.8602 25.532L16.4581 22.7711H13.186C12.9268 22.7711 12.6721 22.6998 12.4481 22.5644C12.2241 22.4291 12.0388 22.2346 11.9111 22.0008C11.7834 21.767 11.7178 21.5023 11.7211 21.2336C11.7244 20.965 11.7965 20.7021 11.93 20.4717L14.8602 15.4115C15.0602 15.0663 15.3843 14.8176 15.7613 14.72C16.1383 14.6225 16.5372 14.6841 16.8703 14.8913Z" fill="#116A7B"/>
</svg>
