<svg width="34" height="25" viewBox="0 0 34 25" fill="none" xmlns="http://www.w3.org/2000/svg">
<path d="M21.9086 12.5002C21.9086 13.78 21.4002 15.0074 20.4953 15.9123C19.5904 16.8172 18.363 17.3256 17.0832 17.3256C15.8034 17.3256 14.5761 16.8172 13.6711 15.9123C12.7662 15.0074 12.2578 13.78 12.2578 12.5002C12.2578 11.2204 12.7662 9.99308 13.6711 9.08813C14.5761 8.18319 15.8034 7.6748 17.0832 7.6748C18.363 7.6748 19.5904 8.18319 20.4953 9.08813C21.4002 9.99308 21.9086 11.2204 21.9086 12.5002Z" stroke="#0EB400" stroke-width="1.60847" stroke-linecap="round" stroke-linejoin="round"/>
<path d="M1 12.5005C3.57355 5.9106 9.5828 1.24121 17.0847 1.24121C24.5866 1.24121 30.5959 5.9106 33.1694 12.5005C30.5959 19.0904 24.5866 23.7598 17.0847 23.7598C9.5828 23.7598 3.57355 19.0904 1 12.5005Z" stroke="#0EB400" stroke-width="1.60847" stroke-linecap="round" stroke-linejoin="round"/>
</svg>
