<svg width="159" height="135" viewBox="0 0 159 135" fill="none" xmlns="http://www.w3.org/2000/svg">
<path d="M91.0781 44.416C91.0781 42.1044 91.7636 39.8448 93.0478 37.9228C94.3321 36.0008 96.1574 34.5028 98.293 33.6182C100.429 32.7336 102.779 32.5021 105.046 32.9531C107.313 33.4041 109.395 34.5172 111.03 36.1517C112.664 37.7862 113.778 39.8687 114.229 42.1359C114.68 44.403 114.448 46.753 113.563 48.8886C112.679 51.0242 111.181 52.8496 109.259 54.1338C107.337 55.4181 105.077 56.1035 102.766 56.1035C99.6659 56.1035 96.6931 54.8722 94.5013 52.6803C92.3095 50.4885 91.0781 47.5157 91.0781 44.416ZM158.281 15.1973V120.385C158.281 124.259 156.742 127.975 154.002 130.715C151.262 133.455 147.547 134.994 143.672 134.994H15.1094C11.2347 134.994 7.51878 133.455 4.77899 130.715C2.0392 127.975 0.5 124.259 0.5 120.385V15.1973C0.5 11.3226 2.0392 7.60667 4.77899 4.86688C7.51878 2.12709 11.2347 0.587891 15.1094 0.587891H143.672C147.547 0.587891 151.262 2.12709 154.002 4.86688C156.742 7.60667 158.281 11.3226 158.281 15.1973ZM18.0312 18.1191V76.3521L42.7649 51.6184C45.5046 48.8796 49.2199 47.341 53.0938 47.341C56.9676 47.341 60.6829 48.8796 63.4226 51.6184L93.496 81.6699L106.045 69.1278C108.785 66.3889 112.5 64.8503 116.374 64.8503C120.248 64.8503 123.963 66.3889 126.703 69.1278L140.75 83.1966V18.1191H18.0312ZM18.0312 117.463H104.475L53.0938 66.0817L18.0312 101.144V117.463ZM140.75 117.463V107.967L116.374 83.5911L105.892 94.0879L129.267 117.463H140.75Z" fill="#116A7B"/>
</svg>
