<svg width="43" height="43" viewBox="0 0 43 43" fill="none" xmlns="http://www.w3.org/2000/svg">
<path d="M21.5 43C16.0056 43 11.2182 41.1789 7.138 37.5366C3.05778 33.8943 0.718259 29.3451 0.119444 23.8889H5.01667C5.57407 28.0296 7.41591 31.4537 10.5422 34.1611C13.6684 36.8685 17.321 38.2222 21.5 38.2222C26.1583 38.2222 30.1103 36.6002 33.356 33.356C36.6018 30.1119 38.2238 26.1599 38.2222 21.5C38.2222 16.8417 36.6002 12.8904 33.356 9.64633C30.1119 6.40222 26.1599 4.77937 21.5 4.77778C18.7528 4.77778 16.1847 5.41481 13.7958 6.68889C11.4069 7.96296 9.3963 9.71481 7.76389 11.9444H14.3333V16.7222H0V2.38889H4.77778V8.00278C6.80833 5.45463 9.2872 3.4838 12.2144 2.09028C15.1416 0.696759 18.2368 0 21.5 0C24.4861 0 27.2835 0.567759 29.8922 1.70328C32.5008 2.8388 34.7703 4.37087 36.7005 6.2995C38.6307 8.23131 40.1636 10.5008 41.2991 13.1078C42.4346 15.7149 43.0016 18.5123 43 21.5C43 24.4861 42.433 27.2835 41.2991 29.8922C40.1652 32.5008 38.6323 34.7703 36.7005 36.7005C34.7687 38.6307 32.4992 40.1636 29.8922 41.2991C27.2851 42.4346 24.4877 43.0016 21.5 43ZM28.1889 31.5333L19.1111 22.4556V9.55555H23.8889V20.5444L31.5333 28.1889L28.1889 31.5333Z" fill="white"/>
</svg>
