<svg width="649" height="443" viewBox="0 0 649 443" fill="none" xmlns="http://www.w3.org/2000/svg">
<g clip-path="url(#clip0_1318_79)">
<path d="M170.164 138.479C190.692 138.479 207.333 118.044 207.333 92.8353C207.333 67.6269 190.692 47.1914 170.164 47.1914C149.636 47.1914 132.995 67.6269 132.995 92.8353C132.995 118.044 149.636 138.479 170.164 138.479Z" fill="#FF6584"/>
<path d="M286.722 233.492H104.381C104.153 233.496 103.925 233.474 103.7 233.426L189.939 49.9893C190.465 48.8469 191.229 47.8965 192.152 47.2353C193.076 46.574 194.125 46.2256 195.194 46.2256C196.263 46.2256 197.313 46.574 198.236 47.2353C199.16 47.8965 199.923 48.8469 200.45 49.9893L258.327 173.09L261.1 178.98L286.722 233.492Z" fill="#5466A6"/>
<path opacity="0.2" d="M286.722 233.492H224.466L255.028 178.979L257.227 175.053L258.327 173.09L261.1 178.979L286.722 233.492Z" fill="black"/>
<path d="M388.248 233.493H230.538L261.1 178.98L263.299 175.053L303.123 104.013C305.734 99.3573 312.014 99.0673 315.084 103.135C315.29 103.412 315.482 103.706 315.657 104.013L388.248 233.493Z" fill="#5466A6"/>
<path d="M434.543 203.316C440.729 203.316 445.743 197.158 445.743 189.562C445.743 181.966 440.729 175.808 434.543 175.808C428.357 175.808 423.343 181.966 423.343 189.562C423.343 197.158 428.357 203.316 434.543 203.316Z" fill="#6C63FF"/>
<path d="M435.623 230.989H433.329L434.374 187.489L435.623 230.989Z" fill="#3F3D56"/>
<path d="M434.576 195.734L437.04 191.549L434.543 196.77L434.273 196.19L434.576 195.734Z" fill="#3F3D56"/>
<path d="M434.307 199.96L431.844 195.776L434.341 200.996L434.61 200.416L434.307 199.96Z" fill="#3F3D56"/>
<path d="M537.285 203.316C543.471 203.316 548.485 197.158 548.485 189.562C548.485 181.966 543.471 175.808 537.285 175.808C531.099 175.808 526.085 181.966 526.085 189.562C526.085 197.158 531.099 203.316 537.285 203.316Z" fill="#6C63FF"/>
<path d="M538.364 230.989H536.07L537.117 187.489L538.364 230.989Z" fill="#3F3D56"/>
<path d="M537.319 195.734L539.782 191.549L537.285 196.77L537.015 196.19L537.319 195.734Z" fill="#3F3D56"/>
<path d="M537.049 199.96L534.586 195.776L537.083 200.996L537.352 200.416L537.049 199.96Z" fill="#3F3D56"/>
<path d="M466.988 190.117C476.124 190.117 483.53 181.022 483.53 169.803C483.53 158.584 476.124 149.49 466.988 149.49C457.852 149.49 450.446 158.584 450.446 169.803C450.446 181.022 457.852 190.117 466.988 190.117Z" fill="#6C63FF"/>
<path d="M468.583 230.989H465.195L466.739 166.744L468.583 230.989Z" fill="#3F3D56"/>
<path d="M467.038 178.92L470.675 172.741L466.989 180.45L466.59 179.593L467.038 178.92Z" fill="#3F3D56"/>
<path d="M466.639 185.161L463.002 178.982L466.689 186.69L467.088 185.834L466.639 185.161Z" fill="#3F3D56"/>
<path d="M507.329 190.117C516.465 190.117 523.871 181.022 523.871 169.803C523.871 158.584 516.465 149.49 507.329 149.49C498.193 149.49 490.787 158.584 490.787 169.803C490.787 181.022 498.193 190.117 507.329 190.117Z" fill="#6C63FF"/>
<path d="M508.923 230.989H505.535L507.08 166.744L508.923 230.989Z" fill="#3F3D56"/>
<path d="M507.378 178.92L511.016 172.741L507.329 180.45L506.93 179.593L507.378 178.92Z" fill="#3F3D56"/>
<path d="M506.98 185.161L503.342 178.982L507.03 186.69L507.428 185.834L506.98 185.161Z" fill="#3F3D56"/>
<path d="M402.696 190.117C411.832 190.117 419.238 181.022 419.238 169.803C419.238 158.584 411.832 149.49 402.696 149.49C393.56 149.49 386.154 158.584 386.154 169.803C386.154 181.022 393.56 190.117 402.696 190.117Z" fill="#6C63FF"/>
<path d="M404.29 230.989H400.902L402.447 166.744L404.29 230.989Z" fill="#3F3D56"/>
<path d="M402.745 178.92L406.382 172.741L402.696 180.45L402.297 179.593L402.745 178.92Z" fill="#3F3D56"/>
<path d="M402.347 185.161L398.71 178.982L402.397 186.69L402.795 185.834L402.347 185.161Z" fill="#3F3D56"/>
<path d="M598.403 442.056H58.5654C51.7639 442.056 45.029 440.411 38.7453 437.215C32.4615 434.018 26.7519 429.333 21.9426 423.428C17.1332 417.522 13.3182 410.51 10.7154 402.794C8.11254 395.077 6.77289 386.807 6.77289 378.455C6.77289 370.102 8.11254 361.832 10.7154 354.115C13.3182 346.399 17.1332 339.388 21.9426 333.482C26.7519 327.576 32.4615 322.891 38.7453 319.695C45.029 316.498 51.7639 314.853 58.5654 314.853H597.208C602.491 314.853 607.557 312.276 611.293 307.689C615.029 303.101 617.128 296.879 617.128 290.391C617.128 283.904 615.029 277.682 611.293 273.094C607.557 268.507 602.491 265.929 597.208 265.929H40.6372V226.79H597.208C610.944 226.79 624.117 233.491 633.83 245.418C643.543 257.346 649 273.523 649 290.391C649 307.259 643.543 323.437 633.83 335.364C624.117 347.292 610.944 353.993 597.208 353.993H58.5654C53.2822 353.993 48.2155 356.57 44.4797 361.157C40.7439 365.745 38.6452 371.967 38.6452 378.455C38.6452 384.942 40.7439 391.164 44.4797 395.752C48.2155 400.339 53.2822 402.917 58.5654 402.917H598.403V442.056Z" fill="#E6E6E6"/>
<path d="M85.2584 245.382H60.5574V247.339H85.2584V245.382Z" fill="white"/>
<path d="M155.378 245.382H130.677V247.339H155.378V245.382Z" fill="white"/>
<path d="M225.497 245.382H200.796V247.339H225.497V245.382Z" fill="white"/>
<path d="M295.616 245.382H270.915V247.339H295.616V245.382Z" fill="white"/>
<path d="M365.735 245.382H341.034V247.339H365.735V245.382Z" fill="white"/>
<path d="M435.854 245.382H411.153V247.339H435.854V245.382Z" fill="white"/>
<path d="M505.973 245.382H481.272V247.339H505.973V245.382Z" fill="white"/>
<path d="M576.092 245.382H551.391V247.339H576.092V245.382Z" fill="white"/>
<path d="M85.2584 333.444H60.5574V335.401H85.2584V333.444Z" fill="white"/>
<path d="M155.378 333.444H130.677V335.401H155.378V333.444Z" fill="white"/>
<path d="M225.497 333.444H200.796V335.401H225.497V333.444Z" fill="white"/>
<path d="M295.616 333.444H270.915V335.401H295.616V333.444Z" fill="white"/>
<path d="M365.735 333.444H341.034V335.401H365.735V333.444Z" fill="white"/>
<path d="M435.854 333.444H411.153V335.401H435.854V333.444Z" fill="white"/>
<path d="M505.973 333.444H481.272V335.401H505.973V333.444Z" fill="white"/>
<path d="M576.092 333.444H551.391V335.401H576.092V333.444Z" fill="white"/>
<path d="M85.2584 421.508H60.5574V423.465H85.2584V421.508Z" fill="white"/>
<path d="M155.378 421.508H130.677V423.465H155.378V421.508Z" fill="white"/>
<path d="M225.497 421.508H200.796V423.465H225.497V421.508Z" fill="white"/>
<path d="M295.616 421.508H270.915V423.465H295.616V421.508Z" fill="white"/>
<path d="M365.735 421.508H341.034V423.465H365.735V421.508Z" fill="white"/>
<path d="M435.854 421.508H411.153V423.465H435.854V421.508Z" fill="white"/>
<path d="M505.973 421.508H481.272V423.465H505.973V421.508Z" fill="white"/>
<path d="M576.092 421.508H551.391V423.465H576.092V421.508Z" fill="white"/>
<path d="M433.375 77.6641C435.97 77.6611 438.522 78.4711 440.791 80.0175H425.977C428.239 78.4716 430.786 77.6614 433.375 77.6641Z" fill="#E6E6E6"/>
<path d="M404.627 75.3111C408.962 75.3048 413.192 76.9493 416.734 80.018H392.537C396.074 76.9529 400.298 75.3086 404.627 75.3111Z" fill="#E6E6E6"/>
<path d="M241.786 45.5175C242.312 34.1019 246.122 23.2867 252.537 15.0001C258.953 6.7134 267.556 1.49397 276.814 0.272349C286.071 -0.949274 295.381 1.90631 303.084 8.33C310.786 14.7537 316.381 24.3279 318.87 35.3456C319.346 35.3247 319.821 35.3012 320.301 35.3012C328.789 35.3031 337.049 38.6798 343.844 44.9262C350.639 51.1726 355.604 59.9529 357.997 69.9534C363.622 66.9186 369.907 66.2601 375.869 68.0812C381.831 69.9023 387.132 74.1 390.944 80.017H268.391C264.816 80.0294 261.275 79.1558 257.982 77.4484C254.688 75.741 251.708 73.235 249.222 70.0803C246.735 66.9257 244.792 63.1873 243.51 59.089C242.228 54.9907 241.632 50.6168 241.758 46.2291C241.766 45.9922 241.775 45.755 241.786 45.5175Z" fill="white"/>
<path d="M442.317 112.89C439.722 112.887 437.169 113.697 434.9 115.243H449.715C447.453 113.697 444.906 112.887 442.317 112.89Z" fill="#E6E6E6"/>
<path d="M471.065 110.537C466.73 110.53 462.5 112.175 458.958 115.244H483.155C479.618 112.179 475.394 110.534 471.065 110.537Z" fill="#E6E6E6"/>
<path d="M633.906 80.7431C633.38 69.3275 629.57 58.5123 623.155 50.2256C616.739 41.939 608.136 36.7196 598.878 35.4979C589.621 34.2763 580.311 37.1319 572.608 43.5556C564.906 49.9793 559.311 59.5535 556.822 70.5712C556.346 70.5503 555.871 70.5268 555.391 70.5268C546.903 70.5287 538.643 73.9054 531.848 80.1518C525.053 86.3982 520.088 95.1784 517.695 105.179C512.07 102.144 505.785 101.486 499.823 103.307C493.861 105.128 488.56 109.326 484.748 115.243H607.301C610.876 115.255 614.416 114.381 617.71 112.674C621.004 110.967 623.984 108.461 626.47 105.306C628.957 102.151 630.899 98.4128 632.182 94.3145C633.464 90.2163 634.06 85.8423 633.934 81.4546C633.926 81.2178 633.916 80.9806 633.906 80.7431Z" fill="white"/>
<path d="M552.201 414.704L566.445 414.713L566.446 411.937L552.203 411.928L552.201 414.704Z" fill="#3F3D56"/>
<path d="M449.219 412.555L452.158 413.39L563.845 413.463L564.85 410.589C566.601 405.661 567.203 400.231 566.586 394.906C566.105 390.938 564.9 386.995 562.162 385.282L557.206 344.744L495.415 344.608L471.508 368.286C471.508 368.286 460.231 368.038 454.105 377.404C451.895 380.886 450.59 385.106 450.36 389.512L450.118 394.384L449.219 412.555Z" fill="#6C63FF"/>
<path d="M473.75 428.812C481.367 428.812 487.542 421.23 487.542 411.877C487.542 402.523 481.367 394.941 473.75 394.941C466.133 394.941 459.959 402.523 459.959 411.877C459.959 421.23 466.133 428.812 473.75 428.812Z" fill="#3F3D56"/>
<path d="M473.75 420.79C477.759 420.79 481.009 416.799 481.009 411.876C481.009 406.954 477.759 402.963 473.75 402.963C469.741 402.963 466.492 406.954 466.492 411.876C466.492 416.799 469.741 420.79 473.75 420.79Z" fill="#CCCCCC"/>
<path d="M541.803 428.857C549.419 428.857 555.594 421.275 555.594 411.921C555.594 402.568 549.419 394.985 541.803 394.985C534.186 394.985 528.011 402.568 528.011 411.921C528.011 421.275 534.186 428.857 541.803 428.857Z" fill="#3F3D56"/>
<path d="M541.803 420.835C545.811 420.835 549.061 416.844 549.061 411.921C549.061 406.999 545.811 403.008 541.803 403.008C537.794 403.008 534.544 406.999 534.544 411.921C534.544 416.844 537.794 420.835 541.803 420.835Z" fill="#CCCCCC"/>
<path d="M481.007 365.519L514.369 365.536H518.441L525.317 365.542V364.926L525.322 357.501L525.327 349.164H520.752L516.68 349.159L509.466 349.152H505.393L497.065 349.146L481.007 365.519Z" fill="white"/>
<path d="M530.746 365.549L548.377 365.56L548.382 361.312V353.887L548.387 349.182H545.805L541.733 349.176L530.751 349.17L530.746 365.549Z" fill="white"/>
<path d="M523.05 383.035L525.311 383.037L525.313 377.762L523.052 377.76L523.05 383.035Z" fill="#3F3D56"/>
<path d="M490.045 373.018L490.046 370.242L485.751 370.239L485.75 373.015L490.045 373.018Z" fill="#3F3D56"/>
<path d="M488.464 371.463L488.215 371.463C487.594 371.462 486.98 371.312 486.407 371.02C485.834 370.728 485.313 370.3 484.874 369.761C484.436 369.222 484.088 368.582 483.851 367.878C483.614 367.174 483.492 366.419 483.492 365.657C483.492 364.895 483.615 364.141 483.853 363.437C484.091 362.733 484.439 362.093 484.878 361.555C485.317 361.016 485.838 360.589 486.411 360.298C486.985 360.007 487.599 359.857 488.22 359.858L488.469 359.858L488.464 371.463Z" fill="#3F3D56"/>
<path d="M450.118 394.384C451.828 394.613 453.548 394.093 454.977 392.916C456.405 391.74 457.449 389.982 457.925 387.952C458.402 385.923 458.28 383.752 457.581 381.823C456.882 379.893 455.651 378.328 454.105 377.404C451.895 380.886 450.59 385.106 450.36 389.512L450.118 394.384Z" fill="#3F3D56"/>
<path d="M516.68 349.159L525.317 364.927L525.322 357.502L520.752 349.165L516.68 349.159Z" fill="#F2F2F2"/>
<path d="M541.732 349.176L548.382 361.312V353.887L545.805 349.183L541.732 349.176Z" fill="#F2F2F2"/>
<path d="M505.393 349.152L514.369 365.536H518.441L509.466 349.152H505.393Z" fill="#F2F2F2"/>
</g>
<defs>
<clipPath id="clip0_1318_79">
<rect width="649" height="442.056" fill="white"/>
</clipPath>
</defs>
</svg>
