<svg width="27" height="27" viewBox="0 0 27 27" fill="none" xmlns="http://www.w3.org/2000/svg">
<path d="M13.6521 0.881425C13.528 0.719776 13.3565 0.601053 13.1615 0.541937C12.9665 0.48282 12.7579 0.486281 12.5649 0.551833C12.372 0.617385 12.2045 0.741733 12.0859 0.907407C11.9672 1.07308 11.9035 1.27175 11.9036 1.47551V7.32539C11.9036 7.58397 12.0063 7.83196 12.1892 8.01481C12.372 8.19765 12.62 8.30037 12.8786 8.30037C13.1372 8.30037 13.3852 8.19765 13.568 8.01481C13.7509 7.83196 13.8536 7.58397 13.8536 7.32539V4.34195L15.355 6.29451C15.504 6.48827 15.7202 6.61904 15.961 6.66093C16.2017 6.70282 16.4494 6.65278 16.655 6.52071L18.878 5.09074L17.8042 8.31727C17.7554 8.46377 17.7421 8.61975 17.7654 8.77239C17.7887 8.92503 17.8479 9.06996 17.9381 9.19524C18.0284 9.32052 18.1471 9.42258 18.2845 9.49301C18.4219 9.56344 18.5741 9.60023 18.7285 9.60035H22.8754L21.2894 11.1863C21.1263 11.3495 21.0263 11.5652 21.0073 11.7951C20.9883 12.0251 21.0514 12.2543 21.1854 12.4421L23.3343 15.4502H21.3284C21.0698 15.4502 20.8219 15.5529 20.639 15.7358C20.4562 15.9186 20.3534 16.1666 20.3534 16.4252C20.3534 16.6838 20.4562 16.9318 20.639 17.1146C20.8219 17.2975 21.0698 17.4002 21.3284 17.4002H25.2283C25.4075 17.4001 25.5831 17.3507 25.736 17.2574C25.8889 17.1641 26.0131 17.0304 26.095 16.8711C26.177 16.7119 26.2134 16.5331 26.2004 16.3544C26.1874 16.1758 26.1255 16.0042 26.0213 15.8584L23.2524 11.9806L25.9173 9.31565C26.054 9.17937 26.1471 9.00561 26.1849 8.81637C26.2227 8.62714 26.2035 8.43094 26.1297 8.25262C26.0559 8.07431 25.9309 7.92189 25.7704 7.81469C25.61 7.70748 25.4213 7.6503 25.2283 7.65039H20.0805L21.604 3.08358C21.6681 2.89199 21.6711 2.68523 21.6125 2.49188C21.554 2.29853 21.4368 2.12814 21.2773 2.00425C21.1177 1.88036 20.9236 1.8091 20.7218 1.80032C20.52 1.79153 20.3204 1.84565 20.1506 1.9552L16.3547 4.39525L13.6508 0.881425H13.6521ZM1.32573 15.7752H1.17884C0.920257 15.7752 0.672267 15.6725 0.489422 15.4897C0.306578 15.3068 0.203857 15.0588 0.203857 14.8002C0.203857 14.5417 0.306578 14.2937 0.489422 14.1108C0.672267 13.928 0.920257 13.8253 1.17884 13.8253H2.17722L2.52301 11.9858C2.64881 11.3154 3.00493 10.7101 3.52978 10.2745C4.05462 9.83894 4.71519 9.60047 5.39725 9.60035H13.3063C13.9586 9.60027 14.5922 9.81824 15.1064 10.2196C15.6206 10.621 15.9858 11.1827 16.1441 11.8155L16.6459 13.8253H17.4285C17.6871 13.8253 17.9351 13.928 18.1179 14.1108C18.3008 14.2937 18.4035 14.5417 18.4035 14.8002C18.4035 15.0588 18.3008 15.3068 18.1179 15.4897C17.9351 15.6725 17.6871 15.7752 17.4285 15.7752H17.2816C17.9732 16.4265 18.4035 17.3508 18.4035 18.3752V24.55C18.4035 25.0672 18.198 25.5632 17.8324 25.9289C17.4667 26.2946 16.9707 26.5 16.4535 26.5C15.9364 26.5 15.4404 26.2946 15.0747 25.9289C14.709 25.5632 14.5036 25.0672 14.5036 24.55V23.9001H4.10378V24.55C4.10378 24.8061 4.05334 25.0597 3.95535 25.2963C3.85735 25.5328 3.71372 25.7478 3.53265 25.9289C3.35158 26.1099 3.13662 26.2536 2.90003 26.3516C2.66345 26.4496 2.40989 26.5 2.15382 26.5C1.89775 26.5 1.64418 26.4496 1.4076 26.3516C1.17102 26.2536 0.956058 26.1099 0.774988 25.9289C0.593917 25.7478 0.450284 25.5328 0.352289 25.2963C0.254295 25.0597 0.203857 24.8061 0.203857 24.55V18.3752C0.203857 17.3508 0.634148 16.4265 1.32573 15.7752ZM4.43917 12.3459L3.97898 14.8002H14.8286C14.8286 14.7482 14.8325 14.6962 14.8416 14.6442L14.2514 12.2887C14.1986 12.0779 14.077 11.8908 13.9058 11.757C13.7346 11.6232 13.5236 11.5505 13.3063 11.5503H5.39725C5.16984 11.5504 4.9496 11.6299 4.77464 11.7752C4.59968 11.9205 4.48101 12.1224 4.43917 12.3459ZM14.5036 19.3501C14.5036 19.0054 14.3666 18.6747 14.1228 18.4309C13.879 18.1871 13.5484 18.0502 13.2036 18.0502C12.8588 18.0502 12.5282 18.1871 12.2844 18.4309C12.0406 18.6747 11.9036 19.0054 11.9036 19.3501C11.9036 19.6949 12.0406 20.0256 12.2844 20.2694C12.5282 20.5132 12.8588 20.6501 13.2036 20.6501C13.5484 20.6501 13.879 20.5132 14.1228 20.2694C14.3666 20.0256 14.5036 19.6949 14.5036 19.3501ZM5.40375 20.6501C5.74853 20.6501 6.07918 20.5132 6.32297 20.2694C6.56676 20.0256 6.70372 19.6949 6.70372 19.3501C6.70372 19.0054 6.56676 18.6747 6.32297 18.4309C6.07918 18.1871 5.74853 18.0502 5.40375 18.0502C5.05898 18.0502 4.72832 18.1871 4.48453 18.4309C4.24074 18.6747 4.10378 19.0054 4.10378 19.3501C4.10378 19.6949 4.24074 20.0256 4.48453 20.2694C4.72832 20.5132 5.05898 20.6501 5.40375 20.6501Z" fill="#FBFBFB"/>
</svg>
