<svg width="36" height="35" viewBox="0 0 36 35" fill="none" xmlns="http://www.w3.org/2000/svg">
<path fill-rule="evenodd" clip-rule="evenodd" d="M14.4582 0.53125H12.8058C8.13294 0.53125 5.79484 0.53125 4.34407 1.98368C2.89164 3.43445 2.89164 5.77255 2.89164 10.4454V32.3393H1.23927C0.910598 32.3393 0.595384 32.4698 0.362975 32.7022C0.130566 32.9346 0 33.2499 0 33.5785C0 33.9072 0.130566 34.2224 0.362975 34.4548C0.595384 34.6872 0.910598 34.8178 1.23927 34.8178H26.4378C26.7665 34.8178 27.0817 34.6872 27.3141 34.4548C27.5465 34.2224 27.6771 33.9072 27.6771 33.5785C27.6771 33.2499 27.5465 32.9346 27.3141 32.7022C27.0817 32.4698 26.7665 32.3393 26.4378 32.3393H24.3724V26.556H26.9682C27.5879 26.556 28.0902 27.0583 28.0902 27.6779V27.7953C28.0902 28.7813 28.4819 29.7269 29.1791 30.4242C29.8763 31.1214 30.822 31.5131 31.808 31.5131C32.794 31.5131 33.7397 31.1214 34.4369 30.4242C35.1341 29.7269 35.5258 28.7813 35.5258 27.7953V9.7878C35.5258 9.52837 35.5258 9.34992 35.5159 9.17642C35.4244 7.5392 34.6876 6.00502 33.467 4.91002C33.3122 4.77674 33.1546 4.64672 32.9944 4.52006L30.929 2.86769C30.802 2.76384 30.6558 2.6862 30.4987 2.63928C30.3415 2.59237 30.1766 2.5771 30.0136 2.59438C29.8505 2.61165 29.6925 2.66112 29.5486 2.73991C29.4048 2.8187 29.2781 2.92526 29.1757 3.05339C29.0734 3.18153 28.9975 3.32871 28.9525 3.48639C28.9074 3.64407 28.8941 3.80912 28.9134 3.97198C28.9326 4.13484 28.9839 4.29226 29.0644 4.43513C29.1449 4.57799 29.253 4.70346 29.3823 4.80426L31.4197 6.4335C31.6576 6.62517 31.7403 6.69126 31.8113 6.75571C32.5433 7.4117 32.9861 8.33206 33.0423 9.31522C33.0482 9.48369 33.0499 9.65229 33.0473 9.82084V10.4454H31.808C31.1507 10.4454 30.5202 10.7066 30.0554 11.1714C29.5906 11.6362 29.3295 12.2666 29.3295 12.924V16.9211C29.3295 17.4413 29.4933 17.9484 29.7976 18.3704C30.1018 18.7924 30.5312 19.108 31.0248 19.2724L33.0473 19.9465V27.7953C33.0473 28.1239 32.9167 28.4392 32.6843 28.6716C32.4519 28.904 32.1367 29.0345 31.808 29.0345C31.4793 29.0345 31.1641 28.904 30.9317 28.6716C30.6993 28.4392 30.5687 28.1239 30.5687 27.7953V27.6779C30.5687 26.723 30.1894 25.8072 29.5142 25.132C28.839 24.4568 27.9231 24.0774 26.9682 24.0774H24.3724V10.4454C24.3724 5.77255 24.3724 3.43445 22.9199 1.98368C21.4692 0.53125 19.1311 0.53125 14.4582 0.53125ZM14.2698 12.6877C14.5516 12.8569 14.7546 13.131 14.8343 13.4499C14.9139 13.7688 14.8636 14.1062 14.6945 14.388L13.3428 16.6418H16.1106C16.3299 16.6418 16.5453 16.7 16.7347 16.8105C16.9242 16.921 17.0809 17.0798 17.189 17.2706C17.297 17.4615 17.3525 17.6776 17.3497 17.8969C17.3469 18.1162 17.2859 18.3308 17.173 18.5189L14.6945 22.6498C14.6116 22.791 14.5015 22.9145 14.3706 23.0129C14.2397 23.1113 14.0906 23.1829 13.9319 23.2233C13.7732 23.2638 13.6081 23.2724 13.446 23.2487C13.284 23.2249 13.1283 23.1693 12.9879 23.085C12.8474 23.0007 12.7251 22.8894 12.628 22.7576C12.5308 22.6257 12.4608 22.4759 12.4219 22.3168C12.383 22.1577 12.376 21.9925 12.4014 21.8307C12.4267 21.6689 12.4839 21.5138 12.5695 21.3742L13.9212 19.1203H11.1535C10.9341 19.1203 10.7188 19.0621 10.5293 18.9516C10.3398 18.8412 10.1831 18.6824 10.075 18.4915C9.967 18.3007 9.91156 18.0845 9.91436 17.8652C9.91716 17.6459 9.97811 17.4313 10.091 17.2433L12.5695 13.1124C12.7387 12.8306 13.0129 12.6275 13.3317 12.5479C13.6506 12.4683 13.988 12.5186 14.2698 12.6877Z" fill="white"/>
</svg>
